<?xml version="1.0" encoding="UTF-8" standalone="no"?>
<!DOCTYPE svg PUBLIC "-//W3C//DTD SVG 1.1//EN" "http://www.w3.org/Graphics/SVG/1.1/DTD/svg11.dtd">
<!-- Created with Vectornator (http://vectornator.io/) -->
<svg height="100%" stroke-miterlimit="10" style="fill-rule:nonzero;clip-rule:evenodd;stroke-linecap:round;stroke-linejoin:round;" version="1.1" viewBox="0 0 960 320" width="100%" xml:space="preserve" xmlns="http://www.w3.org/2000/svg" xmlns:xlink="http://www.w3.org/1999/xlink">
<defs/>
<g id="Ebene-1">
<g fill="#29222a" opacity="1" stroke="none">
<path d="M58.0783 282.742L68.7919 201.748C69.1534 198.529 69.0703 195.788 68.5424 193.524C67.8716 191.486 67.0578 189.674 66.101 188.087C63.5702 183.891 60.0586 181.019 55.5662 179.472C50.9714 177.986 46.1612 178.689 41.1358 181.58C36.735 184.235 33.9249 187.849 32.7056 192.422C31.3839 197.058 31.9847 202.104 34.5082 207.561L18.5424 217.19C13.3347 207.63 11.8113 198.046 13.9722 188.438C16.2768 178.952 21.6968 171.566 30.232 166.279C39.9142 160.579 49.5697 158.942 59.1988 161.37C68.8993 163.684 76.5784 169.416 82.2361 178.565C86.6805 185.934 88.3794 193.842 87.3329 202.289L78.5546 269.136L121.309 243.349L130.985 259.392L67.1984 297.863L58.0783 282.742Z"/>
<path d="M86.5296 134.841L148.7 103.443L157.146 120.166L110.738 143.603L124.073 170.007L124.073 170.007C127.359 162.992 132.495 157.72 139.483 154.191C144.018 152.035 148.529 150.761 153.018 150.368C157.373 150.244 161.251 150.83 164.65 152.126C169.52 153.683 173.74 156.205 177.308 159.692C179.213 161.608 181.161 164.139 183.152 167.285C185.169 170.484 187.417 174.537 189.895 179.445C193.72 187.019 196.123 193.103 197.104 197.696C198.004 202.262 197.929 206.752 196.877 211.166C196.119 215.365 194.186 219.823 191.078 224.539C188.131 229.308 183.75 233.227 177.936 236.297C170.042 240.284 161.628 241.587 152.697 240.207C143.604 238.773 135.551 233.1 128.536 223.186L145.258 214.741C151.598 222.786 159.462 224.505 168.851 219.898C172.851 217.877 175.648 215.461 177.24 212.648C178.753 209.943 179.329 207.108 178.97 204.142C178.664 201.15 177.877 198.134 176.608 195.092C175.26 192.158 173.899 189.33 172.526 186.61C169.265 179.888 165.49 174.999 161.202 171.943C159.032 170.562 156.503 169.864 153.617 169.849C150.838 170.047 147.742 171.008 144.328 172.732C141.288 174.268 138.864 176.362 137.057 179.015C135.278 181.722 134.303 185.36 134.135 189.931L118.372 197.891L86.5296 134.841Z"/>
<path d="M225.729 111.485L239.065 106.206L253.515 142.712L290.021 128.262L295.299 141.598L258.793 156.048L273.243 192.554L259.907 197.832L245.458 161.326L208.952 175.776L203.673 162.44L240.179 147.991L225.729 111.485Z"/>
<path d="M292.435 46.8067L359.697 28.7313L364.559 46.8239L314.35 60.3165L322.027 88.8837L322.027 88.8837C326.673 82.6849 332.776 78.5697 340.336 76.5381C345.215 75.3508 349.891 75.0223 354.366 75.5526C358.655 76.3181 362.332 77.6814 365.396 79.6426C369.847 82.1592 373.464 85.4878 376.248 89.6283C377.723 91.8928 379.114 94.7675 380.422 98.2526C381.745 101.795 383.12 106.222 384.547 111.531C386.749 119.726 387.862 126.172 387.887 130.868C387.838 135.522 386.849 139.903 384.921 144.01C383.324 147.966 380.523 151.937 376.52 155.921C372.663 159.989 367.575 162.934 361.258 164.756C352.717 167.051 344.215 166.613 335.751 163.442C327.141 160.187 320.412 152.991 315.564 141.857L333.656 136.995C338.224 146.163 345.573 149.448 355.704 146.849C360.032 145.686 363.262 143.89 365.394 141.461C367.426 139.12 368.568 136.462 368.82 133.486C369.13 130.494 368.974 127.38 368.352 124.144C367.63 120.997 366.873 117.951 366.082 115.008C364.259 107.763 361.559 102.208 357.984 98.3419C356.14 96.5478 353.807 95.3493 350.984 94.7466C348.223 94.3746 344.996 94.6849 341.303 95.6775C338.013 96.5615 335.214 98.1182 332.905 100.348C330.611 102.635 328.916 105.999 327.82 110.439L310.766 115.022L292.435 46.8067Z"/>
<path d="M477.506 30.3974L441.763 31.6797L441.13 14.0323L532.502 10.7542L533.135 28.4017L497.393 29.684L501.445 142.646L481.558 143.359L477.506 30.3974Z"/>
<path d="M564.788 14.7326L584.474 16.9495L569.848 146.822L550.162 144.605L564.788 14.7326Z"/>
<path d="M632.622 22.9264L650.567 27.9861L663.521 120.115L663.521 120.115L722.003 48.1279L740.034 53.212L704.567 179.001L685.501 173.625L707.613 95.2008L707.181 95.0792L663.84 148.052L647.965 143.576L638.679 75.7645L638.334 75.6672L616.222 154.091L597.155 148.715L632.622 22.9264Z"/>
<path d="M783.726 71.4118L859.472 106.442L851.608 123.446L793.843 96.7313L778.19 130.577L827.494 153.378L820.12 169.325L770.816 146.523L754.712 181.345L812.477 208.06L804.613 225.064L728.867 190.034L783.726 71.4118Z"/>
<path d="M875.583 181.534L901.148 197.117C907.538 200.871 913.403 201.927 918.744 200.283C923.878 198.864 927.923 195.73 930.877 190.883C934.321 185.003 935.024 179.658 932.988 174.848C931.53 170.81 928.097 167.142 922.688 163.845L896.205 147.703L875.583 181.534ZM888.48 122.314L932.032 148.86C941.319 154.521 947.403 161.589 950.285 170.065C953.988 179.95 952.851 190.139 946.874 200.634C937.433 215.664 923.955 221.586 906.441 218.399L902.127 283.69L881.997 271.42L888.024 209.692L866.439 196.536L837.373 244.221L820.458 233.91L888.48 122.314Z"/>
</g>
</g>
</svg>
